<?xml version="1.0" standalone="no"?><!DOCTYPE svg PUBLIC "-//W3C//DTD SVG 1.1//EN"
    "http://www.w3.org/Graphics/SVG/1.1/DTD/svg11.dtd" >
<svg xmlns="http://www.w3.org/2000/svg">
    <defs>
        <font id="MikeIcons" horiz-adv-x="300">
            <font-face font-family="MikeIcons" units-per-em="300" ascent="300" descent="0" />
            <missing-glyph horiz-adv-x="0" />
            <glyph glyph-name="MikeIcons_account" unicode="&#xF101;" horiz-adv-x="300"
                d=" M148.51 80.61A495.5799999999999 495.5799999999999 0 0 0 95.93 83.18A5.75 5.75 0 0 0 94.61 83.47A5.49 5.49 0 0 0 91 88.53C90.93 90.34 90.19 112.23 93.16 123.78C96.27 135.91 117.53 143.72 125.58 146.27A8.27 8.27 0 0 1 126.58 149.75A64.13999999999999 64.13999999999999 0 0 0 119.22 169.13A161.28 161.28 0 0 0 116.49 187.13C115.41 197.81 118.34 207.85 124.49 214.69C130.28 221.09 138.49 224.48 148.23 224.48C169.5 224.48 180.29 212.48 180.29 188.98C180.29 180.89 177.84 169.87 177.66 169.07A63.67 63.67 0 0 0 170 149.26A8.62 8.62 0 0 1 170.95 146.26C179 143.71 200.26 135.9 203.37 123.77C206.37 112.22 205.6 90.29 205.53 88.48A5.51 5.51 0 0 0 201.8 83.39A5.779999999999999 5.779999999999999 0 0 0 200.55 83.13A494.26 494.26 0 0 0 148.51 80.61zM101.85 93.61C116.09 92.26 131.76 91.61 148.51 91.61C165.06 91.61 180.51 92.28 194.64 93.61C194.72 100.61 194.64 113.77 192.72 121.05C191.48 125.89 177.72 132.88 165.72 136.38L165.38 136.4900000000001A4.94 4.94 0 0 0 164.32 137A5.46 5.46 0 0 0 162.32 139.28L162.13 139.59L161.75 140.2400000000001C157.57 138.13 152.04 137.7400000000001 148.66 137.72H148.26C144.79 137.72 139.1 138.15 134.9 140.38C134.73 140.08 134.58 139.82 134.44 139.59L134.23 139.23S134.23 139.23 134.23 139.17A5.42 5.42 0 0 0 130.23 136.17C118.33 132.62 105.04 125.77 103.82 121.02C101.9 113.76 101.77 100.67 101.85 93.64zM148.21 213.51C141.57 213.51 136.33 211.43 132.63 207.34C128.52 202.81 126.63 195.85 127.37 188.26A155.43 155.43 0 0 1 129.9 171.51C132.9 157.39 139.12 150.88 139.81 150.18C140.35 149.77 143.3 148.73 148.24 148.71H148.6C153.51 148.71 156.47 149.77 157.06 150.23C157.7 150.88 163.87 157.38 166.89 171.44L166.89 171.5C166.89 171.6 169.25 182.03 169.25 189.0100000000001C169.27 206.41 163.17 213.51 148.21 213.51z M150 15.21C75.68 15.21 15.21 75.68 15.21 150S75.68 284.79 150 284.79S284.79 224.32 284.79 150S224.32 15.21 150 15.21zM150 270.79A120.79 120.79 0 1 1 270.79 150A120.93 120.93 0 0 1 150 270.79z" />
            <glyph glyph-name="MikeIcons_back" unicode="&#xF102;" horiz-adv-x="300"
                d=" M124.68 48.05L17.88 154.85L124.68 261.65L137.9 248.44L40.99 154.85L137.9 61.26L124.68 48.05z M30.78 164.37H275.2200000000001V145.34H30.78V164.37z" />
            <glyph glyph-name="MikeIcons_barcode" unicode="&#xF103;" horiz-adv-x="300"
                d=" M65.68 224.6H74.3V95.34H65.68V224.6z M100.15 224.6H117.38V95.34H100.15V224.6z M143.24 224.6H151.86V95.34H143.24V224.6z M169.09 224.6H186.32V95.34H169.09V224.6z M203.56 224.6H212.18V95.34H203.56V224.6z M220.79 224.6H238.02V95.34H220.79V224.6z M29.07 222.44L40.09 222.44L40.09 258.8L76.46 258.8L76.46 269.84L29.06 269.84L29.07 222.44z M227.26 269.83L227.26 258.8L263.61 258.8L263.61 222.44L274.65 222.44L274.65 269.84L227.26 269.83z M263.62 88.87L263.62 52.52L227.26 52.52L227.26 41.48L274.65 41.48L274.64 88.87L263.62 88.87z M40.1 88.87L29.06 88.87L29.06 41.48L76.46 41.49L76.46 52.51L40.1 52.51L40.1 88.87z" />
            <glyph glyph-name="MikeIcons_beneficiary" unicode="&#xF104;" horiz-adv-x="300"
                d=" M292.83 130.57C290.13 141.1 271.53 147.9 264.59 150.09A7.570000000000001 7.570000000000001 0 0 0 263.7 152.89A55.38000000000001 55.38000000000001 0 0 1 270.38 170.21C270.53 170.91 272.67 180.5 272.67 187.55C272.67 207.98 263.31 218.34 244.87 218.34C236.42 218.34 229.31 215.4 224.29 209.86C218.93 203.93 216.39 195.21 217.29 185.95A136.42 136.42 0 0 1 219.68 170.23A55.68000000000001 55.68000000000001 0 0 1 226.1 153.33V153.33A7.26 7.26 0 0 0 225.19 150.13C218.24 147.94 199.65 141.13 196.94 130.61C194.35 120.54 195 101.44 195.06 99.89A4.6 4.6 0 0 1 198.13 95.65A4.08 4.08 0 0 1 199.23 95.41A430.16 430.16 0 0 1 245.1 93.16A430.09999999999997 430.09999999999997 0 0 1 290.51 95.37A4.25 4.25 0 0 1 291.58 95.6A4.6 4.6 0 0 1 294.68 99.85C294.77 101.36 295.42 120.5 292.83 130.57zM231.13 203.67C234.4 207.28 239.02 209.11 244.87 209.11C258.06 209.11 263.44 202.86 263.44 187.55C263.44 181.43 261.39 172.31 261.37 172.22V172.22C258.7200000000001 159.9 253.3 154.22 252.72 153.6C252.21 153.18 249.61 152.25 245.22 152.23H244.91C240.51 152.23 237.91 153.18 237.42 153.57C236.81 154.19 231.42 159.9 228.72 172.28A134.73 134.73 0 0 0 226.51 186.92C225.83 193.55 227.52 199.67 231.13 203.67zM285.58 104.1C273.23 102.93 259.65 102.34 245.13 102.34C230.45 102.34 216.71 102.95 204.22 104.14C204.15 110.24 204.22 121.84 205.91 128.27C207.09 132.86 219.99 138.91 229.14 141.64A4.58 4.58 0 0 1 232.47 144.16L232.66 144.4900000000001L233.14 145.34C236.79 143.34 241.83 142.97 244.88 142.96H245.23C248.23 142.96 253.1 143.3200000000001 256.73 145.22L257.1500000000001 144.4900000000001L257.3200000000001 144.21A4.56 4.56 0 0 1 259.0200000000001 142.31A4 4 0 0 1 259.9300000000001 141.87L260.2100000000001 141.78C269.3800000000001 139.1100000000001 282.7000000000001 132.94 283.9000000000001 128.2700000000001C285.55 121.83 285.6600000000001 110.21 285.58 104.1z M74.78 150.09A8 8 0 0 0 73.89 152.89A55.14 55.14 0 0 1 80.57 170.21C80.73 170.91 82.86 180.5 82.86 187.55C82.86 207.98 73.51 218.34 55.07 218.34C46.62 218.34 39.5 215.4 34.49 209.86C29.13 203.93 26.58 195.21 27.49 185.95A140.76 140.76 0 0 1 29.87 170.23A55.38999999999999 55.38999999999999 0 0 1 36.3 153.33V153.33A7.53 7.53 0 0 0 35.39 150.13C28.39 147.94 9.84 141.13 7.14 130.61C4.58 120.5 5.23 101.4 5.29 99.85A4.57 4.57 0 0 1 5.5 98.57A4.61 4.61 0 0 1 8.36 95.57A4.08 4.08 0 0 1 9.46 95.33A430.16 430.16 0 0 1 55.33 93.08A429.91 429.91 0 0 1 100.73 95.29A4.64 4.64 0 0 1 101.79 95.51A4.65 4.65 0 0 1 104.68 98.45A4.46 4.46 0 0 1 104.91 99.77C104.97 101.33 105.62 120.46 103.03 130.53C100.33 141.1 81.73 147.9 74.78 150.09zM41.33 203.67C44.6 207.28 49.22 209.11 55.07 209.11C68.26 209.11 73.64 202.86 73.64 187.55C73.64 181.43 71.64 172.31 71.57 172.22V172.22C68.92 159.9 63.5 154.22 62.92 153.6C62.41 153.18 59.8 152.25 55.42 152.23H55.1C50.69 152.23 48.1 153.18 47.61 153.57C47 154.19 41.61 159.9 38.91 172.28A131.77 131.77 0 0 0 36.7 186.92C36 193.55 37.71 199.67 41.33 203.67zM95.78 104.1C83.43 102.93 69.85 102.34 55.33 102.34C40.65 102.34 26.91 102.95 14.42 104.14C14.35 110.24 14.42 121.84 16.11 128.27C17.29 132.86 30.19 138.91 39.34 141.64A4.57 4.57 0 0 1 42.66 144.16L42.86 144.4900000000001L43.34 145.34C47 143.34 52 143 55.07 143H55.43C58.43 143 63.3 143.36 66.93 145.26C67.08 144.99 67.22 144.74 67.35 144.53L67.51 144.25A0.3 0.3 0 0 0 67.51 144.17H67.51A4.6 4.6 0 0 1 70.21 141.86L70.37 141.86C79.54 139.2 92.85 133.04 94.05 128.35C95.75 121.83 95.85 110.21 95.78 104.1z M166.8 185.38L158.57 178.79L172.81 161L115.24 161L115.24 150.45L172.81 150.45L158.57 132.66L166.8 126.07L190.53 155.73L166.8 185.38z" />
            <glyph glyph-name="MikeIcons_box_corners" unicode="&#xF105;" horiz-adv-x="300"
                d=" M273.09 29.34H212.55V49.52H252.9100000000001V89.88H273.0900000000001zM91.45 29.34H30.91V89.88H51.09V49.52H91.45zM273.09 210.87H252.91V251.23H212.55V271.4100000000001H273.0900000000001zM51.09 210.87H30.91V271.4100000000001H91.45V251.23H51.09z" />
            <glyph glyph-name="MikeIcons_camera" unicode="&#xF106;" horiz-adv-x="300"
                d=" M150.29 98.14A47.87 47.87 0 1 0 198.15 146A47.92 47.92 0 0 0 150.29 98.14zM270.11 223.26H227.11A2.64 2.64 0 0 0 224.76 224.71L211 252.25A5.36 5.36 0 0 1 206.19 255.25H94.37A5.35 5.35 0 0 1 89.57 252.25L75.8 224.71A2.63 2.63 0 0 0 73.46 223.26H30.46A5.37 5.37 0 0 1 25.1 217.9V50.15A5.380000000000001 5.380000000000001 0 0 1 30.47 44.78H270.11A5.37 5.37 0 0 1 275.4700000000001 50.15V217.9A5.36 5.36 0 0 1 270.11 223.26z" />
            <glyph glyph-name="MikeIcons_circle" unicode="&#xF107;" horiz-adv-x="300"
                d=" M68.11 145.79C68.11 99.4588323366947 105.6688323366947 61.9 152 61.9C198.3311676633053 61.9 235.89 99.4588323366947 235.89 145.79C235.89 192.1211676633053 198.3311676633053 229.68 152 229.68C105.6688323366947 229.68 68.11 192.1211676633053 68.11 145.79z" />
            <glyph glyph-name="MikeIcons_close" unicode="&#xF108;" horiz-adv-x="300"
                d=" M248.12 235.8L235.36 248.5L150.06 162.82L65.53 249.33L52.66 236.74L137.36 150.06L51.88 64.2L64.64 51.5L149.94 137.18L234.47 50.68L247.34 63.25L162.64 149.94L248.12 235.8z" />
            <glyph glyph-name="MikeIcons_contact_thin" unicode="&#xF109;" horiz-adv-x="300"
                d=" M102.77 196.49H199V187.49H102.77V196.49z M102.77 167.59H199V158.59H102.77V167.59z M224.92 79.36A115.6 115.6 0 1 1 62.06 93.61A114.35 114.35 0 0 1 127.99 54.61L129.48 54.32L149 21.39L167 53.46L168.63 53.72A115.39 115.39 0 0 1 224.92 79.36zM129.57 62.49A106.32 106.32 0 0 0 68.25 98.8A107.52 107.52 0 1 0 167.38 61.7L161.88 60.83L148.81 37.54L134.58 61.54z M102.77 138.69H199V129.69H102.77V138.69z" />
            <glyph glyph-name="MikeIcons_contact" unicode="&#xF10A;" horiz-adv-x="300"
                d=" M130.52 57.2A108.51000000000002 108.51000000000002 0 0 0 67.94 94.25A109.72000000000001 109.72000000000001 0 1 0 169.11 56.39L163.5 55.5L150.16 31.73L135.64 56.18zM171.37 42.67A124.26000000000002 124.26000000000002 0 1 1 56.82 85.54A122.83000000000001 122.83000000000001 0 0 1 127.69 43.54L129.28 43.23L150.28 7.8799999999999L169.63 42.3499999999999z M101.91 194.79H202.67V187.79H101.91V194.79z M101.91 163.73H202.67V156.73H101.91V163.73z M101.91 132.67H202.67V125.67H101.91V132.67z" />
            <glyph glyph-name="MikeIcons_copy" unicode="&#xF10B;" horiz-adv-x="300"
                d=" M199.8 13.32L34.11 13.32L34.11 141.27L52.11 141.27L52.11 31.32L181.8 31.32L181.8 201.04L52.11 201.04L52.11 131.98L34.11 131.98L34.11 219.04L199.8 219.04L199.8 13.32z M265.89 64.21L215.99 64.21L215.99 82.21L247.89 82.21L247.89 268.68L102.38 268.68L102.38 238.83L84.38 238.83L84.38 286.68L265.89 286.68L265.89 64.21z" />
            <glyph glyph-name="MikeIcons_document" unicode="&#xF10C;" horiz-adv-x="300"
                d=" M201.48 289.32H45.13V10.68H252.13V239.32zM205.81 243V264.36L227.41 243zM237.38 228.29V25.4H59.83V274.6H191.11V228.33z" />
            <glyph glyph-name="MikeIcons_dropdown" unicode="&#xF10D;" horiz-adv-x="300"
                d=" M158.64 93.13A10.8 10.8 0 0 0 143.52 91A11 11 0 0 0 141.36 93.16L65.78 193.91A10.8 10.8 0 0 0 74.42 211.19H225.58A10.8 10.8 0 0 0 234.2200000000001 193.91z" />
            <glyph glyph-name="MikeIcons_face_id" unicode="&#xF10E;" horiz-adv-x="300"
                d=" M34.97 65.66L30 65.66L30 25.59L67.67 25.59L67.67 30.56L34.97 30.56L34.97 65.66z M266.1600000000001 30.56L233.46 30.56L233.46 25.59L271.13 25.59L271.13 65.66L266.1600000000001 65.66L266.1600000000001 30.56z M233.46 266.6L233.46 261.63L266.1600000000001 261.63L266.1600000000001 226.53L271.13 226.53L271.13 266.6L233.46 266.6z M30 226.53L34.97 226.53L34.97 261.63L67.67 261.63L67.67 266.6L30 266.6L30 226.53z M209.37 203.61A81.22 81.22 0 1 1 226.81 177.73A81.21 81.21 0 0 1 209.37 203.61zM227.48 146A75.68 75.68 0 1 0 151.8 221.72A75.77 75.77 0 0 0 227.48 146z M117.82 132A10.88 10.88 0 1 1 106.94 142.87A10.88 10.88 0 0 1 117.82 132z M183.63 153.74A10.88 10.88 0 1 1 194.52 142.86A10.9 10.9 0 0 1 183.63 153.74z M188.17 120.84A5.23 5.23 0 0 1 184.35 119.25C165.18 100.3 136.28 100.3 117.11 119.25A5.380000000000001 5.380000000000001 0 0 1 113.29 120.84A4.35 4.35 0 0 1 110.15 119.4C108.34 117.4 108.69 113.84 110.92 111.66C122.27 100.44 136.5 94.84 150.73 94.84S179.18 100.44 190.53 111.66C192.75 113.85 193.1100000000001 117.4 191.3000000000001 119.41A4.34 4.34 0 0 1 188.17 120.84z" />
            <glyph glyph-name="MikeIcons_failure" unicode="&#xF10F;" horiz-adv-x="300"
                d=" M96 161.27A16 16 0 1 1 112 145.27A16 16 0 0 1 96 161.27 M205.12 161.27A16 16 0 1 1 221.12 145.27A16 16 0 0 1 205.12 161.27 M90.4 79.25C124.84 114.07 176.26 114.07 210.7 79.25C213.47 76.48 213.87 72.07 211.81 69.71S206.24 67.63 203.81 70.04C173.29 100.91 127.73 100.91 97.22 70.04C94.82 67.63 91.32 67.39 89.22 69.71S87.6 76.48 90.34 79.25 M150 15C75.56 15 15 75.56 15 150S75.56 285 150 285S285 224.44 285 150S224.44 15 150 15zM150 275A125 125 0 1 1 275 150A125 125 0 0 1 150 275z" />
            <glyph glyph-name="MikeIcons_favorite" unicode="&#xF110;" horiz-adv-x="300"
                d=" M281 178.78L186.67 188.87L150 275L113.36 188.87L19 178.78L89.4 117.13L70.77 25L150 74.59L229.23 25L210.6 117.13zM220.91 37L150 81.4L79.09 37L95.72 119.23L32.72 174.41L117.32 183.41L150 260.25L182.65 183.49L267.25 174.49L204.25 119.31z M235 16.67L150 69.87L65 16.67L85 115.67L9.53 181.79L110.6 192.59L150 285.2200000000001L189.4 192.59L290.4700000000001 181.79L215 115.65zM150 86.12L215.14 45.35L199.9 120.74L257.75 171.43L179.89 179.76L150 250L120.11 179.73L42.25 171.4L100.1 120.71L84.86 45.35z" />
            <glyph glyph-name="MikeIcons_fingerprint" unicode="&#xF111;" horiz-adv-x="300"
                d=" M27.34 228.11L32.23 228.11L32.23 262.66L64.42 262.66L64.42 267.55L27.34 267.55L27.34 228.11z M32.23 69.76L27.34 69.76L27.34 30.31L64.42 30.31L64.42 35.21L32.23 35.21L32.23 69.76z M259.8 35.21L227.62 35.21L227.62 30.31L264.7 30.31L264.7 69.76L259.8 69.76L259.8 35.21z M227.62 267.55L227.62 262.66L259.8 262.66L259.8 228.11L264.7 228.11L264.7 267.55L227.62 267.55z M209.8 197.46A77.31 77.31 0 0 1 204.26 203.8A79.2 79.2 0 0 1 186.77 217.33C186.1 217.72 185.42 218.1 184.77 218.46C183.89 218.93 183.09 219.34 182.32 219.71A2.57 2.57 0 0 1 181.22 219.97A2.5300000000000002 2.5300000000000002 0 0 1 178.8300000000001 216.62A2.55 2.55 0 0 1 180.1100000000001 215.18C180.8300000000001 214.83 181.5800000000001 214.45 182.4 214.02L184.28 213A74.33 74.33 0 0 0 200.65 200.32A69.69 69.69 0 0 0 205.84 194.39A73.81 73.81 0 0 0 219.21 167.65A2.52 2.52 0 0 1 221.64 165.78A2.82 2.82 0 0 1 222.29 165.86A2.5300000000000002 2.5300000000000002 0 0 1 224.07 168.95A78.93 78.93 0 0 1 209.8 197.46z M73.74 160.3C73.96 161.67 74.22 163.03 74.52 164.36L74.52 164.54C74.76 165.6 75 166.62 75.29 167.7A2.44 2.44 0 0 1 75.38 168.36A2.52 2.52 0 0 1 70.38 168.94C70.05 167.71 69.78 166.58 69.53 165.46L69.53 165.2900000000001Q69.06 163.1500000000001 68.72 161.0300000000001V161A78.62 78.62 0 0 1 70.43 127.79A2.52 2.52 0 1 1 75.29 129.1A73.57 73.57 0 0 0 73.71 160.26z M89.75 195.68A75.71 75.71 0 0 0 95.68 202.08C96.8 203.16 97.98 204.22 99.18 205.23C99.94 205.89 100.77 206.56 101.77 207.33A72.83 72.83 0 0 0 110.08 212.88C111.26 213.57 112.53 214.26 113.85 214.88S116.5 216.16 117.98 216.79L118.06 216.79L118.36 216.92L118.68 217.05A72.54 72.54 0 0 0 125.56 219.52C126.36 219.76 127.17 219.99 127.98 220.21C128.98 220.47 129.98 220.72 130.98 220.94C132.64 221.32 134.36 221.64 136.09 221.94A70.67 70.67 0 0 0 143.44 222.69H143.51C144.88 222.77 146.28 222.8 147.78 222.78A72.34 72.34 0 0 0 157.61 222.07C158.75 221.92 159.93 221.72 161.11 221.49C162.6 221.22 164.11 220.88 165.69 220.49A2.52 2.52 0 0 1 168.48 224.21A2.51 2.51 0 0 1 166.94 225.37C165.28 225.8 163.64 226.1600000000001 162.0500000000001 226.45C160.78 226.7 159.53 226.9 158.3000000000001 227.07A77.08 77.08 0 0 1 147.8200000000001 227.83H147.0700000000001C145.7400000000001 227.83 144.4900000000001 227.83 143.2600000000001 227.73C140.6100000000001 227.5900000000001 137.9500000000001 227.32 135.3300000000001 226.92C133.4800000000001 226.6500000000001 131.6400000000001 226.3 129.87 225.92C128.87 225.69 127.75 225.42 126.71 225.14C125.84 224.91 124.96 224.66 124.12 224.41C121.59 223.64 119.12 222.75 116.73 221.76L116.53 221.67L115.99 221.44C114.41 220.77 112.99 220.11 111.62 219.44S108.85 218.01 107.62 217.27A77.85 77.85 0 0 1 98.75 211.34C97.75 210.53 96.75 209.77 95.97 209.09C94.7 208.02 93.45 206.89 92.25 205.72A79.52 79.52 0 0 1 85.92 198.9C84.4 197.05 82.99 195.17 81.72 193.3C80.72 191.92 79.86 190.49 79 189.04A2.5300000000000002 2.5300000000000002 0 0 1 79.88 185.59A2.52 2.52 0 0 1 83.33 186.48C84.13 187.82 84.99 189.16 85.88 190.48C87 192.19 88.33 193.95 89.75 195.68z M163.93 117.82C163.82 120.32 163.64 122.88 163.38 125.66C163.22 127.4 163.01 129.19 162.75 131.15C162.56 132.61 162.35 134.09 162.12 135.52C161.43 139.8 160.55 144.15 159.49 148.44C159.25 149.44 158.99 150.44 158.73 151.39L158.73 151.51A12.14 12.14 0 0 1 157.35 154.64A11.87 11.87 0 0 1 135.82 145.26C136.07 144.31 136.32 143.35 136.55 142.4C137.55 138.23 138.39 134.02 138.98 129.89C139.19 128.44 139.38 127.01 139.53 125.65C139.66 124.47 139.78 123.26 139.8900000000001 121.94C140.15 118.86 140.3000000000001 115.76 140.34 112.7C140.34 111.3 140.34 109.86 140.34 108.31A2.49 2.49 0 0 1 141.0500000000001 106.52A2.45 2.45 0 0 1 142.81 105.75A2.35 2.35 0 0 1 144.5800000000001 106.42A2.51 2.51 0 0 1 145.3800000000001 108.22C145.3800000000001 109.83 145.3800000000001 111.32 145.3800000000001 112.77C145.3800000000001 115.94 145.1900000000001 119.17 144.9200000000001 122.36C144.81 123.73 144.68 124.99 144.5400000000001 126.21C144.3900000000001 127.62 144.2000000000001 129.1 143.9800000000001 130.61C143.3600000000001 134.9 142.5100000000001 139.27 141.46 143.61C141.21 144.61 140.96 145.61 140.7000000000001 146.61A6.869999999999999 6.869999999999999 0 0 0 147.3300000000001 155.23A6.8 6.8 0 0 0 153.09 152.02A7 7 0 0 0 153.9 150.16L153.9 150.05C154.15 149.11 154.3900000000001 148.2 154.6100000000001 147.29C155.6100000000001 143.12 156.4900000000001 138.91 157.15 134.77C157.38 133.39 157.5800000000001 131.96 157.7700000000001 130.54C158.0200000000001 128.63 158.22 126.9 158.37 125.24C158.63 122.55 158.8000000000001 120.06 158.9 117.65C158.97 116.24 159.0200000000001 114.81 159.04 113.2899999999999C159.04 111.2399999999999 159.04 109.0999999999999 159.04 106.9299999999999S158.86 102.3399999999999 158.69 99.9999999999999C158.6 98.8399999999999 158.4900000000001 97.6099999999999 158.35 96.2399999999999C158.15 94.0899999999999 157.88 91.8699999999999 157.56 89.6399999999999S156.82 84.9399999999999 156.35 82.5299999999999C156.08 81.1399999999999 155.81 79.8599999999999 155.53 78.6299999999999C155.12 76.7199999999999 154.6400000000001 74.7399999999999 154.06 72.5699999999999A2.74 2.74 0 0 1 153.98 71.9299999999999A2.52 2.52 0 0 1 158.98 71.3399999999999C159.56 73.5599999999999 160.05 75.5799999999999 160.48 77.5399999999999C160.77 78.7999999999999 161.04 80.1199999999999 161.33 81.5399999999999C161.81 84.0199999999999 162.22 86.4899999999999 162.57 88.8799999999999S163.19 93.4999999999999 163.4 95.6999999999999C163.54 97.0899999999999 163.65 98.3599999999999 163.7400000000001 99.5899999999999C163.9200000000001 101.9899999999999 164.0400000000001 104.3999999999999 164.1100000000001 106.7599999999999S164.18 111.2099999999999 164.1100000000001 113.3299999999999C164 114.88 164 116.39 163.93 117.82z M142.13 97.09L141.83 97.09A2.52 2.52 0 0 1 139.33 94.88C139.18 93.7 139.01 92.46 138.8 91.08Q138.63 89.95 138.44 88.83A1.91 1.91 0 0 1 138.39 88.62C137.74 84.78 136.89 80.92 135.89 77.14C135.55 75.86 135.18 74.56 134.76 73.19L134.76 73.1A2.76 2.76 0 0 0 134.68 72.83L134.68 72.71A2.52 2.52 0 0 1 136.36 69.57A2.31 2.31 0 0 1 137.09 69.46A2.49 2.49 0 0 1 139.5 71.24L139.5 71.33C139.55 71.48 139.59 71.62 139.63 71.77C140.0499999999999 73.18 140.43 74.51 140.7899999999999 75.85C141.7899999999999 79.71 142.6799999999999 83.64 143.3499999999999 87.55C143.3499999999999 87.65 143.3499999999999 87.7 143.4 87.76C143.5399999999999 88.61 143.68 89.46 143.81 90.33C144.03 91.74 144.1999999999999 93.03 144.36 94.27A2.5300000000000002 2.5300000000000002 0 0 1 142.16 97.07z M178.81 107H178.68A2.46 2.46 0 0 1 177.01 106.36A2.55 2.55 0 0 1 176.19 104.58C176.14 103.34 176.08 102.09 176.01 100.86S175.83 98.14 175.7 96.62C175.41 93.42 175.05 90.28 174.62 87.28C174.43 86 174.24 84.72 174.02 83.45C173.67 81.37 173.28 79.25 172.84 77.14A2.24 2.24 0 0 1 172.79 76.62A2.52 2.52 0 0 1 177.79 76.16C178.24 78.35 178.65 80.51 179 82.61C179.22 83.93 179.42 85.24 179.61 86.61C180.06 89.69 180.43 92.93 180.73 96.23C180.86 97.78 180.96 99.23 181.05 100.61S181.19 103.16 181.24 104.43A2.5300000000000002 2.5300000000000002 0 0 1 178.82 107.05z M127.12 126.07A2.52 2.52 0 0 1 124.62 128.27L124.3 128.27A2.51 2.51 0 0 1 122.13 125.45C122.31 124.07 122.46 122.64 122.59 121.2C122.92 117.52 123.08 113.83 123.05 110.2C123.05 109.52 123.05 108.87 123.05 108.2C123.05 106.82 122.96 105.37 122.86 103.73C122.63 100.09 122.21 96.45 121.63 92.89C121.49 91.98 121.33 91.08 121.15 90.13C120.93 88.9 120.67 87.6 120.38 86.3C119.69 83.18 118.85 80.03 117.89 76.95A2.52 2.52 0 0 1 118 75A2.48 2.48 0 0 1 119.48 73.77A2.4 2.4 0 0 1 120.23 73.65A2.5 2.5 0 0 1 122.63 75.42C123.63 78.63 124.52 81.92 125.24 85.18C125.54 86.55 125.81 87.89 126.04 89.18C126.23 90.18 126.39 91.09 126.54 92.05C127.15 95.77 127.54 99.58 127.83 103.38C127.93 105.08 128 106.58 128.02 107.98C128.02 108.7 128.02 109.4 128.07 110.11C128.07 113.88 127.94 117.74 127.59 121.58C127.48 123.12 127.31 124.61 127.12 126.07z M174.58 135C175.2 130.73 175.65 126.41 175.94 122.17C176.03 120.71 176.11 119.26 176.17 117.81A2.52 2.52 0 0 1 178.69 115.4H178.8000000000001A2.51 2.51 0 0 1 181.2000000000001 118.03C181.1400000000001 119.52 181.0600000000001 121.03 180.96 122.49C180.6700000000001 126.88 180.2000000000001 131.33 179.56 135.71C179.35 137.26 179.12 138.71 178.88 140.07C178.16 144.31 177.25 148.65 176.17 152.96C175.99 153.7 175.8 154.44 175.61 155.17L175.42 155.89C175.42 156.1 175.31 156.3 175.25 156.5L175.25 156.63C175.0500000000001 157.33 174.81 158.04 174.53 158.78A29.210000000000004 29.210000000000004 0 0 1 147.67 177.52A29.260000000000005 29.260000000000005 0 0 1 139.75 176.52A29.139999999999997 29.139999999999997 0 0 1 118.52 143.78C118.67 142.78 118.88 141.78 119.14 140.78S119.64 138.88 119.87 137.93A2.5 2.5 0 0 1 121.01 136.38A2.47 2.47 0 0 1 122.92 136.08A2.5300000000000002 2.5300000000000002 0 0 1 124.77 139.08C124.53 140.08 124.28 141.08 124.01 142.08S123.62 143.75 123.49 144.54A23.94 23.94 0 0 0 124.77 157A24.62 24.62 0 0 0 127.23 161.72A24 24 0 0 0 141 171.62A24.320000000000004 24.320000000000004 0 0 0 147.27 172.45H147.55A24.23 24.23 0 0 0 157.9 169.95A24.17 24.17 0 0 0 169.76 156.95C169.99 156.34 170.19 155.77 170.35 155.2L170.42 154.98C170.42 154.86 170.49 154.73 170.52 154.6L170.7 153.93L171.27 151.71C172.32 147.52 173.2 143.31 173.89 139.18C174.15 137.81 174.37 136.43 174.58 135z M122.94 181.82L123 181.87A2.52 2.52 0 0 1 121.61 186.49A2.45 2.45 0 0 1 120.36 186.15A2.82 2.82 0 0 1 120 185.91A43.92 43.92 0 0 1 116.25 182.91A45.93999999999999 45.93999999999999 0 0 1 107.25 171.83C106.71 170.91 106.25 170.03 105.79 169.14A45.349999999999994 45.349999999999994 0 0 1 102.95 162.14A46.28 46.28 0 0 1 102.45 136.37A97.28000000000002 97.28000000000002 0 0 0 105.45 102.76L105.45 102.52C105.45 102.39 105.45 102.3 105.45 102.21V102C105.18 99.06 104.76 96.07 104.2 93.11C103.68 90.34 103.04 87.56 102.29 84.86A2.51 2.51 0 0 1 104.03 81.76A2.33 2.33 0 0 1 104.71 81.66A2.5300000000000002 2.5300000000000002 0 0 1 107.14 83.5C107.93 86.35 108.61 89.27 109.14 92.18C109.73 95.27 110.14 98.4 110.45 101.4800000000001C110.45 101.6600000000001 110.45 101.8100000000001 110.45 101.96L110.45 102.18A102.37 102.37 0 0 1 107.31 137.5800000000001A41.21 41.21 0 0 0 107.75 160.5800000000001A41.84 41.84 0 0 0 110.28 166.8600000000001C110.68 167.65 111.1 168.43 111.59 169.2600000000001A40.94 40.94 0 0 0 119.64 179.1400000000001A40.51 40.51 0 0 0 122.94 181.82z M192.1 160.35A46.26 46.26 0 0 1 179.61 181.62A45.11 45.11 0 0 1 173.56 186.57A46 46 0 0 1 159.85 193C159.08 193.22 158.29 193.42 157.5 193.59A43 43 0 0 1 152.55 194.44A46.050000000000004 46.050000000000004 0 0 1 138.5 193.9L138.33 193.9C137.24 193.69 136.21 193.45 135.23 193.18S133.39 192.65 132.59 192.38A2.48 2.48 0 0 1 131.15 191.11A2.52 2.52 0 0 1 134.22 187.61C134.91 187.85 135.66 188.08 136.56 188.32S138.35 188.77 139.25 188.94A2.61 2.61 0 0 1 139.5200000000001 189A41.72 41.72 0 0 0 147.2900000000001 189.74A40.54 40.54 0 0 0 151.9700000000001 189.47A41.22 41.22 0 0 0 156.3900000000001 188.71C157.1000000000001 188.55 157.8000000000001 188.38 158.4800000000001 188.18A41 41 0 0 0 170.71 182.44A40.32 40.32 0 0 0 176.1 178A41.18 41.18 0 0 0 187.23 159A185.93999999999997 185.93999999999997 0 0 0 193.58 112.6C193.58 112.3 193.58 111.99 193.58 111.66C193.58 106.79 193.42 101.9 193.06 97.13C192.84 94.13 192.53 91.04 192.13 87.88A2.51 2.51 0 0 1 194.32 85.07L194.63 85.07H194.63A2.52 2.52 0 0 1 197.12 87.28C197.53 90.51 197.85 93.7 198.12 96.77C198.5 101.67 198.68 106.69 198.65 111.69V112.69A191.26 191.26 0 0 1 192.1 160.35z M89.31 148.39C89.31 149.83 89.37 151.29 89.48 152.71A58 58 0 0 0 92.18 166.3C92.32 166.72 92.46 167.14 92.62 167.58C93.03 168.76 93.49 169.93 93.98 171.07A58.38999999999999 58.38999999999999 0 0 0 101.27 183.56C102.04 184.56 102.85 185.56 103.69 186.56A57.26 57.26 0 0 0 108.32 191.28L108.46 191.4A56.67 56.67 0 0 0 113.15 195.21L113.21 195.21A57.32 57.32 0 0 0 129.53 203.48C130.39 203.76 131.28 204.03 132.27 204.29A57.79 57.79 0 0 0 159.36 205H159.45A58.870000000000005 58.870000000000005 0 0 0 165.91 203.19C167.4900000000001 202.65 169.11 202.02 170.72 201.31A58.52000000000001 58.52000000000001 0 0 0 182.0500000000001 194.66C183.4200000000001 193.66 184.75 192.55 185.9800000000001 191.44A2.45 2.45 0 0 1 187.7900000000001 190.8A2.48 2.48 0 0 1 189.5300000000001 191.63A2.51 2.51 0 0 1 189.3500000000001 195.18C188.0000000000001 196.4 186.5600000000001 197.58 185.0700000000001 198.69A63 63 0 0 1 172.7600000000001 205.91C171.0200000000001 206.69 169.2600000000001 207.37 167.5400000000001 207.91A62.849999999999994 62.849999999999994 0 0 1 160.43 209.91H160.35A62.61 62.61 0 0 1 148.12 211.28H147.25A62.92 62.92 0 0 1 131 209.16C129.92 208.87 128.94 208.58 128 208.28A62.34000000000001 62.34000000000001 0 0 1 110.21 199.28L110.15 199.28A56.72999999999999 56.72999999999999 0 0 1 105.22 195.28L105.09 195.18A60 60 0 0 1 99.91 189.9C99 188.9 98.12 187.78 97.29 186.7A62.54 62.54 0 0 1 89.38 173.14C88.84 171.9 88.38 170.63 87.89 169.33C87.72 168.86 87.56 168.39 87.41 167.94A63.650000000000006 63.650000000000006 0 0 1 84.47 153.18C84.35 151.62 84.29 150.0400000000001 84.29 148.47A2.52 2.52 0 1 1 89.29 148.47z M92.05 130.33C91.83 131.27 91.59 132.25 91.3 133.33C91.08 134.17 90.87 135.03 90.68 135.9A2.54 2.54 0 0 1 88.21 137.9A2.46 2.46 0 0 1 87.68 137.84A2.51 2.51 0 0 1 85.76 134.84C85.96 133.9 86.19 132.96 86.43 132.04S86.93 130.1 87.14 129.21A82 82 0 0 0 89 116.7C89.1 115.27 89.16 113.83 89.18 112.41A79.29 79.29 0 0 0 88.31 99.15C88.2 98.37 88.07 97.58 87.93 96.8A2.51 2.51 0 0 1 88.34 94.92A2.55 2.55 0 0 1 89.97 93.92A3.1300000000000003 3.1300000000000003 0 0 1 90.41 93.92A2.5300000000000002 2.5300000000000002 0 0 1 92.89 96C93.04 96.85 93.18 97.69 93.29 98.51A84.4 84.4 0 0 1 94.22 112.57C94.22 114.08 94.13 115.57 94.02 117.14A85.73 85.73 0 0 1 92.05 130.33z M214.56 127C214.45 128.47 214.32 129.94 214.17 131.42C213.74 135.71 213.17 140.13 212.43 144.56C212.18 146.01 211.94 147.43 211.67 148.85C210.87 153.1 209.93 157.41 208.85 161.66C208.6 162.66 208.35 163.66 208.09 164.6S207.56 166.48 207.28 167.36A62.190000000000005 62.190000000000005 0 0 1 201.78 179.84C200.98 181.23 200.13 182.58 199.26 183.84A2.5300000000000002 2.5300000000000002 0 0 1 197.64 184.84A2.45 2.45 0 0 1 197.18 184.84A2.49 2.49 0 0 1 194.71 182.78A2.49 2.49 0 0 1 195.11 180.89C195.91 179.74 196.68 178.51 197.41 177.23A56.84 56.84 0 0 0 202.48 165.74C202.74 164.94 202.99 164.09 203.22 163.22S203.73 161.3 203.97 160.34C205.0200000000001 156.19 205.97 151.98 206.72 147.84C206.98 146.42 207.23 145.02 207.46 143.63C208.1700000000001 139.32 208.7400000000001 135.02 209.16 130.83C209.3 129.39 209.43 127.95 209.54 126.51C209.88 122.12 210.08 117.72 210.13 113.41C210.13 112.2 210.13 110.97 210.13 109.73C210.13 109.25 210.13 108.73 210.13 108.27V107.58A2.5300000000000002 2.5300000000000002 0 0 1 212.62 105.04L212.62 104.32V105.04A2.52 2.52 0 0 1 215.1400000000001 107.53V108.35C215.1400000000001 108.81 215.1400000000001 109.27 215.1400000000001 109.72C215.1400000000001 110.98 215.1400000000001 112.25 215.1400000000001 113.48C215.12 118 214.91 122.52 214.56 127z" />
            <glyph glyph-name="MikeIcons_forward" unicode="&#xF112;" horiz-adv-x="300"
                d=" M171.87 256.8L278.67 150L171.87 43.2L158.66 56.41L255.56 150L158.66 243.59L171.87 256.8z M21.33 159.51H265.77V140.48H21.33V159.51z" />
            <glyph glyph-name="MikeIcons_gallery" unicode="&#xF113;" horiz-adv-x="300"
                d=" M260.81 229.18H11V40.62H260.81V229.18zM243.93 98L184.78 190.17A4.33 4.33 0 0 1 177.55 190.24L119.8 103.91L79.2 144.35A4.32 4.32 0 0 1 72.6 143.75L27.91 79.2V212.3H243.91z M290 259.38H70.21V242.5H273.12V101.45H290V255.06C290 257.44 290 259.38 290 259.38z M45.47 181.38C45.47 173.1675257700161 52.1275257700161 166.51 60.34 166.51C68.5524742299839 166.51 75.21 173.1675257700161 75.21 181.38C75.21 189.5924742299839 68.5524742299839 196.25 60.34 196.25C52.1275257700161 196.25 45.47 189.5924742299839 45.47 181.38z" />
            <glyph glyph-name="MikeIcons_image" unicode="&#xF114;" horiz-adv-x="300"
                d=" M13.55 260.38V32.47H283.61V260.38zM270.69 45.38H36.06L125.06 130.65L167.83 98L212.92 148.16L270.69 91.58zM270.69 109.68L212.34 166.85L166.18 115.5L124.05 147.59L26.46 54V247.47H270.69z M86.61 163.39A30.300000000000004 30.300000000000004 0 1 1 56.31 193.68A30.339999999999996 30.339999999999996 0 0 1 86.61 163.39zM86.61 211.13A17.45 17.45 0 1 0 69.17 193.68A17.46 17.46 0 0 0 86.61 211.13z" />
            <glyph glyph-name="MikeIcons_lock" unicode="&#xF115;" horiz-adv-x="300"
                d=" M215.42 111.58A65.42 65.42 0 1 0 84.58 111.58V156.86A12.790000000000001 12.790000000000001 0 0 0 97.34 169.66H128.05A5.380000000000001 5.380000000000001 0 0 0 132.79 166.66A19.31 19.31 0 0 1 167.21 166.66A5.380000000000001 5.380000000000001 0 0 0 171.95 169.66H202.66A12.790000000000001 12.790000000000001 0 0 0 215.42 156.86zM105.59 208.34A44.41 44.41 0 1 0 194.41 208.34V181.34H170.49A9.28 9.28 0 0 1 162.26 176.18L162.03 175.74A13.76 13.76 0 0 0 137.7400000000001 176.18A9.29 9.29 0 0 1 129.5100000000001 181.34H105.59zM226.59 161.5A18.94 18.94 0 0 1 209.48 180.44L207.07 180.67V207.67A57.089999999999996 57.089999999999996 0 1 1 92.89 207.67V180.67L90.48 180.44A18.94 18.94 0 0 1 73.39 161.5V111.94C73.39 69.56 107.76 35.08 150 35.08S226.61 69.56 226.61 111.94z M137.23 93.82C137.23 86.7673237446608 142.9473237446608 81.05 150 81.05C157.0526762553392 81.05 162.77 86.7673237446608 162.77 93.82C162.77 100.8726762553392 157.0526762553392 106.59 150 106.59C142.9473237446608 106.59 137.23 100.8726762553392 137.23 93.82z M148 81.05H152V65.63H148V81.05z" />
            <glyph glyph-name="MikeIcons_logo" unicode="&#xF116;" horiz-adv-x="300"
                d=" M89.85 68H274.21L182 229.47zM300 53H64.06L182 259.58z M25.79 68.19H152.79L89.31 179.42zM178.63 53.14H0L89.31 209.53z" />
            <glyph glyph-name="MikeIcons_notification" unicode="&#xF117;" horiz-adv-x="300"
                d=" M266.13 59.58H33.87A18.89 18.89 0 0 0 15 78.45C15 87.73 19.14 94.63 29.3 102.28C47.21 115.79 54.14 131.87 65.49 212.28C71.68 256.17 106.43 286.8 150 286.8S228.32 256.17 234.51 212.32C245.86 131.87 252.79 115.79 270.71 102.32C280.86 94.67 285 87.77 285 78.49A18.89 18.89 0 0 0 266.13 59.58zM150 273.51C113.23 273.51 83.88 247.59 78.64 210.46C67.26 129.83 59.92 108.73 37.29 91.67C28.29 84.89 28.29 81.32 28.29 78.45A5.599999999999999 5.599999999999999 0 0 1 33.88 72.86H266.13A5.599999999999999 5.599999999999999 0 0 1 271.72 78.45C271.72 81.32 271.72 84.89 262.72 91.67C240.09 108.73 232.72 129.83 221.37 210.46C216.12 247.59 186.77 273.51 150 273.51z M150 22.91A37.21 37.21 0 0 0 113.55 67.55L114.63 72.86H185.37L186.45 67.55A37.21 37.21 0 0 0 150 22.91zM126.09 59.58A23.92 23.92 0 0 1 173.91 59.58z" />
            <glyph glyph-name="MikeIcons_pencil" unicode="&#xF118;" horiz-adv-x="300"
                d=" M250.06 223.07A6.85 6.85 0 0 1 250.06 232.71L210.39 272.52A7 7 0 0 1 200.72 272.52L51.06 122.89L41.26 63.69L100.38 73.39zM55.36 77.76L61.9 117.32L205.53 260.95L238.46 227.88L94.81 84.24z M40.51 34.33H251.49V22.91H40.51V34.33z" />
            <glyph glyph-name="MikeIcons_person" unicode="&#xF119;" horiz-adv-x="300"
                d=" M245.85 35.22A3.32 3.32 0 0 1 246.55 36.4400000000001A3.2100000000000004 3.2100000000000004 0 0 1 246.72 37.4400000000001C246.79 39.09 248.15 77.7600000000001 243.17 97.1300000000001C241.97 101.8 234.66 118.1300000000001 190.84 131.9900000000001L188.44 132.7400000000001L187.3 135A20.940000000000005 20.940000000000005 0 0 0 185.03 142.26L184.81 144.26L185.88 146A104.77000000000001 104.77000000000001 0 0 1 198.41 178.61C198.59 179.42 202.84 198.44 202.84 211.95C202.84 249.4 186.58 267.61 153.14 267.61C137.96 267.61 125.24 262.41 116.35 252.61C106.74 242 102.2 226.23 103.9 209.36A266.79 266.79 0 0 1 108.53 178.79A105.91 105.91 0 0 1 120.62 146.79L121.51 145.29L121.46 143.54A19.82 19.82 0 0 0 119.11 134.97L118 132.76L115.61 132.01C71.78 118.12 64.48 101.82 63.28 97.16C58.28 77.73 59.64 39.26 59.7 37.63H59.7A3.4600000000000004 3.4600000000000004 0 0 1 59.87 36.57A3.51 3.51 0 0 1 60.64 35.23A3.63 3.63 0 0 1 62.06 34.23A4.12 4.12 0 0 1 62.92 34.04A856.2599999999999 856.2599999999999 0 0 1 153.69 29.6A851.76 851.76 0 0 1 243.44 34A3.51 3.51 0 0 1 244.31 34.18A3.4699999999999998 3.4699999999999998 0 0 1 245.85 35.22zM115.47 180.3A271.59 271.59 0 0 0 111 210.07C109.51 224.93 113.39 238.7 121.65 247.84C129.26 256.26 139.87 260.53 153.17 260.53C182.62 260.53 195.76 245.53 195.76 211.98C195.76 199.39 191.69 181.05 191.52 180.28L191.52 180.15C185.93 154.15 174.17 141.71 172.84 140.38L172.35 139.94C169.35 137.54 162.11 136 153.91 135.94H153.26C143.93 135.99 137.33 137.94 134.93 139.77L134.41 140.23C132.13 142.46 121 154.66 115.47 180.3zM239.81 46.14L239.74 40.74L234.37 40.24C209.71 37.92 182.55 36.75 153.66 36.75C124.43 36.75 96.96 37.94 72.03 40.31L66.66 40.81L66.6 46.21C66.45 58.88 66.72 82.11 70.14 95.39C71.6 101.09 78.14 107.17 89.64 113.39A166.63 166.63 0 0 0 120.12 126L120.77 126.16A3.4699999999999998 3.4699999999999998 0 0 1 123.36 128.06L123.52 128.37L123.84 128.93L123.96 129.14C124.21 129.56 124.46 129.98 124.72 130.45L127.59 135.54L132.76 132.8C139.08 129.45 148.27 128.91 153.18 128.88H153.86C158.63 128.88 167.57 129.43 173.86 132.63L178.95 135.2L181.78 130.25L182.41 129.17L182.92 128.26A3.72 3.72 0 0 1 184.28 126.72A3.89 3.89 0 0 1 184.96 126.39L185.18 126.32A163.75 163.75 0 0 0 216.91 113.37C234.0600000000001 103.97 235.7100000000001 97.54 236.2500000000001 95.37C239.7 82.09 240 58.82 239.81 46.14z" />
            <glyph glyph-name="MikeIcons_recent" unicode="&#xF11A;" horiz-adv-x="300"
                d=" M268.87 146.95A118.9 118.9 0 0 0 31.1 150C31.1 180.65 43.79 210.21 66.79 233.21S119.36 268.9 150 268.9S210.2 256.23 233.21 233.21L264.59 201.83H220.12V195.73H275V250.61H268.9V206.14L237.52 237.52C213.36 261.69 182.27 275 150 275S86.64 261.69 62.48 237.52S25 182.28 25 150A125 125 0 0 1 275 146.95z M150 21A129.15 129.15 0 0 0 21 150C21 183.35 34.74 215.44 59.65 240.35S116.66 279 150 279S215.43 265.27 240.35 240.35L264.9 215.8V254.61H279V191.73H216.12V205.83H254.93L230.38 230.38C208.12 252.64 179.58 264.9 150 264.9S91.88 252.64 69.62 230.38S35.11 179.58 35.1 150A114.91 114.91 0 0 1 264.87 147L264.9700000000001 150.9H279.06L278.96 146.8A129.14 129.14 0 0 0 150 21z M153.05 220.12L153.05 139.07L109.79 95.81L114.11 91.5L159.15 136.54L159.15 220.12L153.05 220.12z M114.11 88.67L107 95.81L151.08 139.9V222.12H161.18V135.71zM112.62 95.81L114.11 94.33L157.11 137.33V218.12H155.01V138.24z" />
            <glyph glyph-name="MikeIcons_redo" unicode="&#xF11B;" horiz-adv-x="300"
                d=" M151.72 27.91A125.64999999999999 125.64999999999999 0 0 0 26.21 153.42C26.21 154.42 26.21 155.49 26.21 156.52L34.21 156.33Q34.21 154.87 34.21 153.42A117.53000000000002 117.53000000000002 0 0 1 263.69 117.65L271.31 115.21A125.6 125.6 0 0 0 151.72 27.91z M276.67 141.41L268.67 142.17C269.0200000000001 145.88 269.2 149.67 269.2 153.42A117.65 117.65 0 0 1 151.72 270.94A116.45 116.45 0 0 1 80.44 246.86A118.38999999999999 118.38999999999999 0 0 1 38.77 186L31.09 188.21A126.41 126.41 0 0 0 75.58 253.21A125.52 125.52 0 0 0 277.23 153.41C277.23 149.42 277 145.37 276.67 141.41z M276.95 93.9L267.69 115.47L245.76 106.04L242.6 113.39L271.88 125.97L284.31 97.05L276.95 93.9z M32.28 177.79L18.37 206.03L25.54 209.56L35.92 188.5L57.33 199.06L60.87 191.88L32.28 177.79z" />
            <glyph glyph-name="MikeIcons_separator" unicode="&#xF11C;" horiz-adv-x="300"
                d=" M91.62 160.26H209.58V131.31H91.62V160.26z" />
            <glyph glyph-name="MikeIcons_success" unicode="&#xF11D;" horiz-adv-x="300"
                d=" M153.2 35.25A117.65 117.65 0 1 0 270.85 152.9A117.66000000000001 117.66000000000001 0 0 0 153.2 35.25zM270.94 202.64A128.23 128.23 0 1 1 280.94 152.9A128.23 128.23 0 0 1 270.94 202.64z M135.15 117.9L103 143.58L97.65 136.93L133.15 108.38A3.5199999999999996 3.5199999999999996 0 0 1 135.37 107.59A3.63 3.63 0 0 1 137.87 108.59L218.87 188.84L213.48 194.31z" />
            <glyph glyph-name="MikeIcons_trusted_contacts" unicode="&#xF11E;" horiz-adv-x="300"
                d=" M106.46 83.61A66.83 66.83 0 1 0 173.29 150.44A66.91 66.91 0 0 0 106.46 83.61zM106.46 203.27A52.83 52.83 0 1 1 159.29 150.44A52.89 52.89 0 0 1 106.46 203.27z M172.48 83.61A66.83 66.83 0 1 0 239.31 150.44A66.91 66.91 0 0 0 172.48 83.61zM172.48 203.27A52.83 52.83 0 1 1 225.31 150.44A52.89 52.89 0 0 1 172.48 203.27z" />
            <glyph glyph-name="MikeIcons_trusting_users" unicode="&#xF11F;" horiz-adv-x="300"
                d=" M150.8 166.16A56.46 56.46 0 1 0 207.26 222.62A56.53 56.53 0 0 0 150.8 166.16zM150.8 265.08A42.46 42.46 0 1 1 193.26 222.62A42.5 42.5 0 0 1 150.8 265.08z M75.26 36.65A56.47 56.47 0 1 0 131.72 93.12A56.53 56.53 0 0 0 75.26 36.65zM75.26 135.58A42.47 42.47 0 1 1 117.72 93.12A42.51 42.51 0 0 1 75.26 135.58z M233.54 36.65A56.47 56.47 0 1 0 290 93.12A56.53 56.53 0 0 0 233.54 36.65zM233.54 135.58A42.47 42.47 0 1 1 276 93.12A42.51 42.51 0 0 1 233.54 135.58z" />
        </font>
</defs>
</svg>
